Coordinates
version=1
nRows=24
nColumns=24
inDegrees=yes

Units are S.I. units (second, meters, Newtons, ...)
Angles are in degrees.

endheader
time	pelvis_tilt	pelvis_list	pelvis_rotation	pelvis_tx	pelvis_ty	pelvis_tz	hip_flexion_r	hip_adduction_r	hip_rotation_r	knee_angle_r	ankle_angle_r	subtalar_angle_r	mtp_angle_r	hip_flexion_l	hip_adduction_l	hip_rotation_l	knee_angle_l	ankle_angle_l	subtalar_angle_l	mtp_angle_l	lumbar_extension	lumbar_bending	lumbar_rotation
      6.13000000	     -1.17797822	      7.11366380	      2.61262519	     -1.63359176	      0.89200102	      0.24624674	     20.23646920	     -7.50531025	     -6.31105762	    -59.87377766	     12.20938919	      1.77857467	      0.00000000	      4.57677753	     12.38812286	      3.13335787	     -9.50261688	     12.02413052	     -0.09549239	      0.00000000	    -21.04967715	     -7.60798651	    -12.68363145
      6.14000000	     -1.21302755	      6.92583697	      2.81422621	     -1.62377731	      0.89232434	      0.24579270	     21.25268412	     -7.32648066	     -6.63119882	    -58.35253041	     12.91243263	      2.28701039	      0.00000000	      3.66940661	     12.23373908	      3.72825590	     -9.08246306	     12.24527726	     -0.56079384	      0.00000000	    -21.12786907	     -7.27476052	    -12.87781045
      6.15000000	     -1.23725406	      6.77279565	      2.97709167	     -1.61396159	      0.89245534	      0.24548883	     22.19219705	     -7.13725065	     -6.84015723	    -56.58947698	     13.44787170	      2.51029625	      0.00000000	      2.77065441	     12.10978418	      4.39674139	     -8.69152100	     12.42418581	     -1.21233096	      0.00000000	    -21.21308236	     -7.00608879	    -13.03279271
      6.16000000	     -1.26337015	      6.67532378	      3.11770710	     -1.60410571	      0.89235624	      0.24529339	     23.06392852	     -6.97647121	     -6.95808275	    -54.60583967	     13.83472150	      2.46184429	      0.00000000	      1.89258129	     12.03734335	      5.02742686	     -8.33452338	     12.62772281	     -1.89081538	      0.00000000	    -21.27841248	     -6.82357507	    -13.17398219
      6.17000000	     -1.26428869	      6.63934068	      3.25242344	     -1.59425851	      0.89207946	      0.24518731	     23.82935806	     -6.84325840	     -6.94725218	    -52.40562445	     14.12787186	      2.23551114	      0.00000000	      1.00419770	     12.02299617	      5.71655858	     -8.01713997	     12.81553423	     -2.66861215	      0.00000000	    -21.39084791	     -6.72410929	    -13.38309890
      6.18000000	     -1.25988451	      6.63599776	      3.38867112	     -1.58433872	      0.89163354	      0.24515124	     24.48638121	     -6.72956787	     -6.87435787	    -49.96304649	     14.29395648	      1.81337166	      0.00000000	      0.10889949	     12.03150814	      6.39979473	     -7.70976545	     13.03453317	     -3.44021962	      0.00000000	    -21.48812966	     -6.66628173	    -13.58615311
      6.19000000	     -1.24900801	      6.66591401	      3.53472129	     -1.57435998	      0.89107494	      0.24520695	     25.01968035	     -6.62572801	     -6.70425540	    -47.26620767	     14.31786070	      1.24052892	      0.00000000	     -0.79050720	     12.05766526	      7.06818666	     -7.42401862	     13.24119556	     -4.15182346	      0.00000000	    -21.58960982	     -6.65456631	    -13.80933794
      6.20000000	     -1.24239288	      6.71151197	      3.68055972	     -1.56431435	      0.89037684	      0.24533266	     25.43592235	     -6.52468594	     -6.44980939	    -44.31792937	     14.20829756	      0.57568998	      0.00000000	     -1.67770778	     12.08646122	      7.69880314	     -7.16669109	     13.49202470	     -4.79908395	      0.00000000	    -21.68446930	     -6.66794186	    -14.04565949
      6.21000000	     -1.34408297	      6.79724604	      3.81923583	     -1.55420025	      0.88940106	      0.24558927	     25.85776619	     -6.45151532	     -6.09258573	    -41.14076969	     13.92355209	     -0.19000628	      0.00000000	     -2.42061906	     12.14608074	      8.11429026	     -6.96731791	     13.83827882	     -5.16577121	      0.00000000	    -21.62529330	     -6.75853876	    -14.27202258
      6.22000000	     -1.36517578	      6.90246426	      3.99553304	     -1.54401752	      0.88846059	      0.24582209	     26.03457467	     -6.42282654	     -5.72353666	    -37.70218513	     13.50764217	     -0.91729646	      0.00000000	     -3.25865370	     12.20834874	      8.66678710	     -6.78348255	     14.12293854	     -5.60320409	      0.00000000	    -21.68050276	     -6.84421662	    -14.57709296
      6.23000000	     -1.22943159	      7.02131954	      4.20492231	     -1.53375541	      0.88764632	      0.24596549	     25.88335189	     -6.45276943	     -5.38271483	    -34.03369480	     13.03957326	     -1.40524946	      0.00000000	     -4.28237916	     12.26433013	      9.43807252	     -6.60308602	     14.31577715	     -6.23089642	      0.00000000	    -21.94109123	     -6.87948617	    -14.97315991
      6.24000000	     -1.23642749	      7.22024842	      4.43437636	     -1.52338878	      0.88649137	      0.24617688	     25.79053916	     -6.60510378	     -5.09182851	    -30.23817256	     12.45050503	     -1.85759407	      0.00000000	     -5.11702737	     12.39922964	     10.06936782	     -6.51908200	     14.57353260	     -6.62307619	      0.00000000	    -22.00959711	     -7.03988644	    -15.38287521
      6.25000000	     -1.34356227	      7.50394101	      4.71548981	     -1.51291092	      0.88506931	      0.24640423	     25.72096452	     -6.90481317	     -4.95430944	    -26.37733938	     11.80965230	     -2.14906113	      0.00000000	     -5.80636507	     12.61584834	     10.60729165	     -6.54967124	     14.89146539	     -6.78222397	      0.00000000	    -21.95032963	     -7.31495992	    -15.85186724
      6.26000000	     -1.19174409	      7.76015207	      5.01841794	     -1.50217259	      0.88391486	      0.24651888	     25.25340352	     -7.23742788	     -5.14881417	    -22.45396512	     11.28042998	     -1.90200183	      0.00000000	     -6.81176012	     12.76623248	     11.37441545	     -6.56301765	     15.12452706	     -7.14585335	      0.00000000	    -22.18027161	     -7.47001441	    -16.36539048
      6.27000000	     -1.19018938	      8.12670864	      5.41145033	     -1.49134671	      0.88241723	      0.24668645	     24.94067960	     -7.73370258	     -5.65240913	    -18.68316650	     10.87035367	     -1.31752267	      0.00000000	     -7.60012687	     13.01914936	     12.09404851	     -6.74133937	     15.43001969	     -7.26447671	      0.00000000	    -22.23485121	     -7.79627496	    -16.94208815
      6.28000000	     -1.00594004	      8.45503907	      5.78903957	     -1.48023875	      0.88107266	      0.24683745	     24.40880661	     -8.19949050	     -6.53314529	    -15.10064698	     10.72362632	      0.06315032	      0.00000000	     -8.59670370	     13.19629221	     12.95576212	     -6.94387079	     15.71132726	     -7.48340929	      0.00000000	    -22.46523576	     -8.01747879	    -17.47669510
      6.29000000	     -0.86612165	      8.79411928	      6.23173994	     -1.46896548	      0.87962332	      0.24710877	     23.92721241	     -8.65874703	     -7.61540973	    -11.80524744	     10.68217247	      1.78028792	      0.00000000	     -9.50088546	     13.35133960	     13.78992788	     -7.27335005	     16.04325979	     -7.50209001	      0.00000000	    -22.63039979	     -8.28287168	    -18.03468974
      6.30000000	     -0.69042598	      9.09705829	      6.67450428	     -1.45751543	      0.87818447	      0.24750770	     23.42532907	     -9.03557514	     -8.67220291	     -8.87298621	     10.73970919	      3.78059528	      0.00000000	    -10.40144766	     13.43812255	     14.60525036	     -7.70119621	     16.41829876	     -7.39829010	      0.00000000	    -22.82063595	     -8.51639140	    -18.54994272
      6.31000000	     -0.49317140	      9.37411936	      7.09597369	     -1.44591326	      0.87674321	      0.24801164	     22.93276720	     -9.34160366	     -9.45865862	     -6.36830154	     10.84751155	      5.73463527	      0.00000000	    -11.26574057	     13.48379217	     15.36070442	     -8.25192275	     16.80659473	     -7.20372921	      0.00000000	    -23.01414877	     -8.73171397	    -18.95470396
      6.32000000	     -0.29297667	      9.60593612	      7.47378556	     -1.43415996	      0.87530020	      0.24859560	     22.48231226	     -9.57328178	     -9.83678986	     -4.34255994	     10.92737556	      7.37439486	      0.00000000	    -12.06706407	     13.48307946	     16.02429510	     -8.92272669	     17.19700328	     -6.91866340	      0.00000000	    -23.18515080	     -8.91040652	    -19.22176543
      6.33000000	     -0.10876677	      9.81765927	      7.80445259	     -1.42221512	      0.87386715	      0.24923799	     22.09163414	     -9.77617075	     -9.76690986	     -2.82416559	     10.94250056	      8.48360053	      0.00000000	    -12.79199895	     13.47072200	     16.55350099	     -9.70583399	     17.51670981	     -6.54199451	      0.00000000	    -23.29738928	     -9.09023924	    -19.39966408
      6.34000000	      0.08607111	      9.97260787	      8.05995742	     -1.41018678	      0.87248538	      0.24986885	     21.78897461	     -9.92902895	     -9.40808467	     -1.91049037	     10.89491035	      9.17145975	      0.00000000	    -13.43509049	     13.43117435	     16.99660763	    -10.64302072	     17.79985233	     -6.13045717	      0.00000000	    -23.41791465	     -9.19271157	    -19.38349878
      6.35000000	      0.20757531	     10.03520389	      8.21780623	     -1.39773877	      0.87105898	      0.25056066	     21.65629666	     -9.98212207	     -8.94001320	     -1.59639198	     10.83535885	      9.54069173	      0.00000000	    -13.97565111	     13.33413948	     17.39926986	    -11.61940967	     17.94936230	     -5.79267634	      0.00000000	    -23.32387308	     -9.24109344	    -19.17678463
      6.36000000	      0.71371886	     10.00203762	      8.36834746	     -1.38504962	      0.87034415	      0.25129655	     21.06652330	     -9.90040183	     -8.40920656	     -1.66307136	     10.50682795	      9.18559789	      0.00000000	    -14.80024487	     13.05852359	     17.26653036	    -12.78637335	     18.13628560	     -4.90151966	      0.00000000	    -23.66926554	     -9.06172709	    -19.02800733
